<svg width="17" height="16" viewBox="0 0 17 16" fill="none" xmlns="http://www.w3.org/2000/svg">
<path d="M1.24743 3.16826C0.580283 2.50111 0.580285 1.41946 1.24743 0.752313C1.91458 0.0851675 2.99623 0.0851672 3.66338 0.752313L15.7431 12.8321C16.4103 13.4992 16.4103 14.5809 15.7431 15.248C15.076 15.9151 13.9943 15.9151 13.3272 15.248L1.24743 3.16826Z" fill="white"/>
<path d="M3.66338 15.248C2.99623 15.9151 1.91457 15.9151 1.24743 15.248C0.580284 14.5809 0.580284 13.4992 1.24743 12.8321L13.3272 0.752312C13.9943 0.0851659 15.076 0.0851675 15.7431 0.752313C16.4103 1.41946 16.4103 2.50112 15.7431 3.16826L3.66338 15.248Z" fill="white"/>
</svg>
