<svg width="2em" height="2em" viewBox="0 0 17 17" fill="none" xmlns="http://www.w3.org/2000/svg">
<path fill-rule="evenodd" clip-rule="evenodd" d="M13.8809 16.6667H2.78576C1.25257 16.6667 0 15.4141 0 13.8809V2.78576C0 1.25257 1.25257 0 2.78576 0H13.8809C15.4141 0 16.6667 1.25257 16.6667 2.78576V13.8809C16.6667 15.4209 15.4209 16.6667 13.8809 16.6667ZM8.33676 12.6144C7.19371 12.6144 6.1191 12.1695 5.31143 11.3618C4.50377 10.5541 4.05887 9.47954 4.05887 8.33648C4.05887 7.19343 4.50377 6.11883 5.31143 5.31116C6.1191 4.50349 7.19371 4.05859 8.33676 4.05859C9.47981 4.05859 10.5544 4.50349 11.3621 5.31116C12.1698 6.11883 12.6147 7.19343 12.6147 8.33648C12.6147 9.47954 12.1698 10.5541 11.3621 11.3618C10.5476 12.1695 9.47981 12.6144 8.33676 12.6144ZM8.33676 4.96893C6.48187 4.96893 4.9692 6.47475 4.9692 8.33648C4.9692 10.1914 6.47502 11.704 8.33676 11.704C10.1917 11.704 11.7043 10.1982 11.7043 8.33648C11.6975 6.48159 10.1917 4.96893 8.33676 4.96893ZM14.2699 3.09677C14.2699 3.5504 13.9021 3.91814 13.4485 3.91814C12.9948 3.91814 12.6271 3.5504 12.6271 3.09677C12.6271 2.64313 12.9948 2.27539 13.4485 2.27539C13.9021 2.27539 14.2699 2.64313 14.2699 3.09677Z" fill="currentColor"/>
</svg>
