<svg width="20" height="20" viewBox="0 0 20 20" fill="none" xmlns="http://www.w3.org/2000/svg">
<path d="M4.39066 6.39404H0.327637V19.3508H4.39066V6.39404Z" fill="#292929"/>
<path d="M15.3817 6.11289C15.2319 6.09416 15.0728 6.0848 14.9136 6.07544C12.6387 5.98182 11.3561 7.32992 10.9068 7.91035C10.7851 8.0695 10.7289 8.16312 10.7289 8.16312V6.43119H6.84375V19.3879H10.7289H10.9068C10.9068 18.0679 10.9068 16.7573 10.9068 15.4372C10.9068 14.7257 10.9068 14.0142 10.9068 13.3027C10.9068 12.4227 10.8412 11.4866 11.2812 10.6814C11.6557 10.0074 12.3298 9.67037 13.0881 9.67037C15.3349 9.67037 15.3817 11.7019 15.3817 11.8891C15.3817 11.8985 15.3817 11.9078 15.3817 11.9078V19.4441H19.4447V10.9904C19.4447 8.09759 17.9749 6.39374 15.3817 6.11289Z" fill="#292929"/>
<path d="M2.35917 4.71835C3.6621 4.71835 4.71835 3.66211 4.71835 2.35917C4.71835 1.05624 3.6621 0 2.35917 0C1.05623 0 0 1.05624 0 2.35917C0 3.66211 1.05623 4.71835 2.35917 4.71835Z" fill="#292929"/>
</svg>
