<svg width="217" height="39" viewBox="0 0 217 39" fill="none" xmlns="http://www.w3.org/2000/svg">
<mask id="mask0_120_67" style="mask-type:alpha" maskUnits="userSpaceOnUse" x="0" y="0" width="217" height="39">
<path d="M14.1335 38.5653C11.1742 38.5653 8.6411 37.9794 6.53409 36.8075C4.42708 35.6238 2.81132 33.9785 1.68679 31.8715C0.562263 29.7526 0 27.2964 0 24.5028C0 21.7093 0.562263 19.259 1.68679 17.152C2.81132 15.0331 4.42708 13.3878 6.53409 12.2159C8.6411 11.0322 11.1742 10.4403 14.1335 10.4403C16.8087 10.4403 19.1229 10.9257 21.076 11.8963C23.041 12.8551 24.562 14.2164 25.6392 15.9801C26.7164 17.732 27.2609 19.7917 27.2727 22.1591H18.1818C18.0516 20.7268 17.6373 19.6378 16.9389 18.892C16.2524 18.1345 15.3646 17.7557 14.2756 17.7557C13.4233 17.7557 12.6776 18.0043 12.0384 18.5014C11.3991 18.9867 10.902 19.7266 10.5469 20.7209C10.1918 21.7034 10.0142 22.9403 10.0142 24.4318C10.0142 25.9233 10.1918 27.1662 10.5469 28.1605C10.902 29.143 11.3991 29.8828 12.0384 30.38C12.6776 30.8653 13.4233 31.108 14.2756 31.108C14.9976 31.108 15.6368 30.9422 16.1932 30.6108C16.7495 30.2675 17.1993 29.7704 17.5426 29.1193C17.8977 28.4564 18.1108 27.6515 18.1818 26.7045H27.2727C27.2372 29.1075 26.6868 31.2027 25.6215 32.9901C24.5561 34.7656 23.0469 36.1387 21.0938 37.1094C19.1525 38.08 16.8324 38.5653 14.1335 38.5653Z" fill="#FAFAFA"/>
<path d="M39.9558 38.5653C36.9965 38.5653 34.4634 37.9794 32.3564 36.8075C30.2493 35.6238 28.6336 33.9785 27.5091 31.8715C26.3845 29.7526 25.8223 27.2964 25.8223 24.5028C25.8223 21.7093 26.3845 19.259 27.5091 17.152C28.6336 15.0331 30.2493 13.3878 32.3564 12.2159C34.4634 11.0322 36.9965 10.4403 39.9558 10.4403C42.9151 10.4403 45.4482 11.0322 47.5552 12.2159C49.6622 13.3878 51.278 15.0331 52.4025 17.152C53.5271 19.259 54.0893 21.7093 54.0893 24.5028C54.0893 27.2964 53.5271 29.7526 52.4025 31.8715C51.278 33.9785 49.6622 35.6238 47.5552 36.8075C45.4482 37.9794 42.9151 38.5653 39.9558 38.5653ZM40.0268 31.321C40.8554 31.321 41.5716 31.0429 42.1753 30.4865C42.7789 29.9302 43.2465 29.1371 43.5779 28.1072C43.9094 27.0774 44.0751 25.8523 44.0751 24.4318C44.0751 22.9995 43.9094 21.7744 43.5779 20.7564C43.2465 19.7266 42.7789 18.9335 42.1753 18.3771C41.5716 17.8208 40.8554 17.5426 40.0268 17.5426C39.1509 17.5426 38.3992 17.8208 37.7718 18.3771C37.1445 18.9335 36.6651 19.7266 36.3336 20.7564C36.0022 21.7744 35.8365 22.9995 35.8365 24.4318C35.8365 25.8523 36.0022 27.0774 36.3336 28.1072C36.6651 29.1371 37.1445 29.9302 37.7718 30.4865C38.3992 31.0429 39.1509 31.321 40.0268 31.321Z" fill="#FAFAFA"/>
<path d="M63.3677 1.70455V38.0682H53.5666V1.70455H63.3677Z" fill="#FAFAFA"/>
<path d="M77.0007 38.5653C74.0414 38.5653 71.5083 37.9794 69.4013 36.8075C67.2943 35.6238 65.6785 33.9785 64.554 31.8715C63.4295 29.7526 62.8672 27.2964 62.8672 24.5028C62.8672 21.7093 63.4295 19.259 64.554 17.152C65.6785 15.0331 67.2943 13.3878 69.4013 12.2159C71.5083 11.0322 74.0414 10.4403 77.0007 10.4403C79.96 10.4403 82.4931 11.0322 84.6001 12.2159C86.7072 13.3878 88.3229 15.0331 89.4474 17.152C90.572 19.259 91.1342 21.7093 91.1342 24.5028C91.1342 27.2964 90.572 29.7526 89.4474 31.8715C88.3229 33.9785 86.7072 35.6238 84.6001 36.8075C82.4931 37.9794 79.96 38.5653 77.0007 38.5653ZM77.0717 31.321C77.9003 31.321 78.6165 31.0429 79.2202 30.4865C79.8239 29.9302 80.2914 29.1371 80.6229 28.1072C80.9543 27.0774 81.12 25.8523 81.12 24.4318C81.12 22.9995 80.9543 21.7744 80.6229 20.7564C80.2914 19.7266 79.8239 18.9335 79.2202 18.3771C78.6165 17.8208 77.9003 17.5426 77.0717 17.5426C76.1958 17.5426 75.4441 17.8208 74.8168 18.3771C74.1894 18.9335 73.71 19.7266 73.3786 20.7564C73.0471 21.7744 72.8814 22.9995 72.8814 24.4318C72.8814 25.8523 73.0471 27.0774 73.3786 28.1072C73.71 29.1371 74.1894 29.9302 74.8168 30.4865C75.4441 31.0429 76.1958 31.321 77.0717 31.321Z" fill="#FAFAFA"/>
<path d="M90.6115 38.0682V10.7955H100.129V15.9801H100.413C100.91 14.0625 101.697 12.6598 102.774 11.772C103.863 10.8842 105.136 10.4403 106.592 10.4403C107.018 10.4403 107.438 10.4759 107.852 10.5469C108.278 10.6061 108.687 10.6948 109.077 10.8132V19.1761C108.592 19.0104 107.994 18.8861 107.284 18.8033C106.574 18.7204 105.964 18.679 105.455 18.679C104.496 18.679 103.632 18.898 102.863 19.3359C102.105 19.7621 101.508 20.3658 101.07 21.147C100.632 21.9164 100.413 22.822 100.413 23.8636V38.0682H90.6115Z" fill="#FAFAFA"/>
<path d="M132.72 19.6733H123.7C123.653 19.117 123.458 18.6376 123.114 18.2351C122.771 17.8326 122.327 17.5249 121.783 17.3118C121.25 17.0869 120.658 16.9744 120.007 16.9744C119.167 16.9744 118.445 17.1283 117.841 17.4361C117.237 17.7438 116.941 18.1818 116.953 18.75C116.941 19.1525 117.113 19.5253 117.468 19.8686C117.835 20.2119 118.539 20.4782 119.581 20.6676L125.121 21.6619C127.914 22.1709 129.992 23.0291 131.353 24.2365C132.726 25.4321 133.419 27.036 133.43 29.0483C133.419 30.9896 132.839 32.6764 131.69 34.1087C130.554 35.5291 128.997 36.63 127.021 37.4112C125.056 38.1806 122.812 38.5653 120.291 38.5653C116.125 38.5653 112.863 37.7131 110.508 36.0085C108.164 34.304 106.856 32.0549 106.584 29.2614H116.314C116.444 30.1255 116.87 30.7943 117.592 31.2678C118.326 31.7294 119.25 31.9602 120.362 31.9602C121.262 31.9602 122.002 31.8063 122.582 31.4986C123.174 31.1908 123.475 30.7528 123.487 30.1847C123.475 29.6638 123.215 29.2495 122.706 28.9418C122.209 28.634 121.428 28.3854 120.362 28.196L115.533 27.3438C112.751 26.8584 110.668 25.9351 109.283 24.5739C107.898 23.2126 107.211 21.4607 107.223 19.3182C107.211 17.4242 107.708 15.8203 108.714 14.5064C109.732 13.1806 111.183 12.1745 113.065 11.4879C114.959 10.7895 117.202 10.4403 119.794 10.4403C123.736 10.4403 126.843 11.2571 129.116 12.8906C131.4 14.5241 132.602 16.785 132.72 19.6733Z" fill="#FAFAFA"/>
<path d="M138.012 38.6364C136.639 38.6364 135.462 38.157 134.479 37.1982C133.508 36.2275 133.029 35.0497 133.041 33.6648C133.029 32.3153 133.508 31.1612 134.479 30.2024C135.462 29.2436 136.639 28.7642 138.012 28.7642C139.315 28.7642 140.463 29.2436 141.457 30.2024C142.463 31.1612 142.972 32.3153 142.984 33.6648C142.972 34.5881 142.73 35.4285 142.256 36.1861C141.794 36.9318 141.191 37.5296 140.445 37.9794C139.699 38.4174 138.888 38.6364 138.012 38.6364Z" fill="#FAFAFA"/>
<path d="M148.64 38.0682L141.822 10.7955H151.623L154.748 27.4148H154.961L158.441 10.7955H167.958L171.581 27.2727H171.794L174.777 10.7955H184.578L177.76 38.0682H167.177L163.342 23.4375H163.058L159.223 38.0682H148.64Z" fill="#FAFAFA"/>
<path d="M199.325 10.7955V17.8977H181.356V10.7955H199.325ZM184.836 4.26137H194.637V29.2969C194.637 29.6757 194.703 29.9953 194.833 30.2557C194.963 30.5043 195.164 30.6937 195.436 30.8239C195.709 30.9422 196.058 31.0014 196.484 31.0014C196.78 31.0014 197.123 30.9659 197.514 30.8949C197.916 30.8239 198.212 30.7647 198.402 30.7173L199.822 37.6065C199.384 37.7367 198.757 37.8965 197.94 38.0859C197.135 38.2753 196.176 38.3996 195.064 38.4588C192.815 38.5772 190.926 38.3464 189.4 37.7663C187.873 37.1745 186.724 36.2453 185.955 34.9787C185.185 33.7121 184.813 32.1259 184.836 30.2202V4.26137Z" fill="#FAFAFA"/>
<path d="M215.16 10.7955V17.8977H196.907V10.7955H215.16ZM200.387 38.0682V10.0142C200.387 7.76515 200.789 5.90081 201.594 4.42117C202.399 2.94153 203.536 1.83476 205.003 1.10085C206.471 0.366951 208.199 0 210.188 0C211.431 0 212.638 0.0946979 213.81 0.284094C214.994 0.473487 215.87 0.639206 216.438 0.78125L215.018 7.8125C214.662 7.70597 214.248 7.62311 213.775 7.56392C213.301 7.4929 212.887 7.45739 212.532 7.45739C211.608 7.45739 210.987 7.6527 210.667 8.04333C210.348 8.43395 210.188 8.94886 210.188 9.58807V38.0682H200.387Z" fill="#FAFAFA"/>
</mask>
<g mask="url(#mask0_120_67)">
<rect x="-52" y="-14" width="346" height="132" fill="white"/>
</g>
</svg>
