<svg width="224" height="39" viewBox="0 0 224 39" fill="none" xmlns="http://www.w3.org/2000/svg">
<mask id="mask0_56_87" style="mask-type:alpha" maskUnits="userSpaceOnUse" x="0" y="0" width="217" height="39">
<path d="M14.1335 38.5653C11.1742 38.5653 8.6411 37.9794 6.53409 36.8075C4.42708 35.6238 2.81132 33.9785 1.68679 31.8715C0.562263 29.7526 0 27.2964 0 24.5028C0 21.7093 0.562263 19.259 1.68679 17.152C2.81132 15.0331 4.42708 13.3878 6.53409 12.2159C8.6411 11.0322 11.1742 10.4403 14.1335 10.4403C16.8087 10.4403 19.1229 10.9257 21.076 11.8963C23.041 12.8551 24.562 14.2164 25.6392 15.9801C26.7164 17.732 27.2609 19.7917 27.2727 22.1591H18.1818C18.0516 20.7268 17.6373 19.6378 16.9389 18.892C16.2524 18.1345 15.3646 17.7557 14.2756 17.7557C13.4233 17.7557 12.6776 18.0043 12.0384 18.5014C11.3991 18.9867 10.902 19.7266 10.5469 20.7209C10.1918 21.7034 10.0142 22.9403 10.0142 24.4318C10.0142 25.9233 10.1918 27.1662 10.5469 28.1605C10.902 29.143 11.3991 29.8828 12.0384 30.38C12.6776 30.8653 13.4233 31.108 14.2756 31.108C14.9976 31.108 15.6368 30.9422 16.1932 30.6108C16.7495 30.2675 17.1993 29.7704 17.5426 29.1193C17.8977 28.4564 18.1108 27.6515 18.1818 26.7045H27.2727C27.2372 29.1075 26.6868 31.2027 25.6215 32.9901C24.5561 34.7656 23.0469 36.1387 21.0938 37.1094C19.1525 38.08 16.8324 38.5653 14.1335 38.5653Z" fill="#FAFAFA"/>
<path d="M39.9558 38.5653C36.9965 38.5653 34.4634 37.9794 32.3564 36.8075C30.2493 35.6238 28.6336 33.9785 27.5091 31.8715C26.3845 29.7526 25.8223 27.2964 25.8223 24.5028C25.8223 21.7093 26.3845 19.259 27.5091 17.152C28.6336 15.0331 30.2493 13.3878 32.3564 12.2159C34.4634 11.0322 36.9965 10.4403 39.9558 10.4403C42.9151 10.4403 45.4482 11.0322 47.5552 12.2159C49.6622 13.3878 51.278 15.0331 52.4025 17.152C53.5271 19.259 54.0893 21.7093 54.0893 24.5028C54.0893 27.2964 53.5271 29.7526 52.4025 31.8715C51.278 33.9785 49.6622 35.6238 47.5552 36.8075C45.4482 37.9794 42.9151 38.5653 39.9558 38.5653ZM40.0268 31.321C40.8554 31.321 41.5716 31.0429 42.1753 30.4865C42.7789 29.9302 43.2465 29.1371 43.5779 28.1072C43.9094 27.0774 44.0751 25.8523 44.0751 24.4318C44.0751 22.9995 43.9094 21.7744 43.5779 20.7564C43.2465 19.7266 42.7789 18.9335 42.1753 18.3771C41.5716 17.8208 40.8554 17.5426 40.0268 17.5426C39.1509 17.5426 38.3992 17.8208 37.7718 18.3771C37.1445 18.9335 36.6651 19.7266 36.3336 20.7564C36.0022 21.7744 35.8365 22.9995 35.8365 24.4318C35.8365 25.8523 36.0022 27.0774 36.3336 28.1072C36.6651 29.1371 37.1445 29.9302 37.7718 30.4865C38.3992 31.0429 39.1509 31.321 40.0268 31.321Z" fill="#FAFAFA"/>
<path d="M63.3677 1.70455V38.0682H53.5666V1.70455H63.3677Z" fill="#FAFAFA"/>
<path d="M77.0007 38.5653C74.0414 38.5653 71.5083 37.9794 69.4013 36.8075C67.2943 35.6238 65.6785 33.9785 64.554 31.8715C63.4295 29.7526 62.8672 27.2964 62.8672 24.5028C62.8672 21.7093 63.4295 19.259 64.554 17.152C65.6785 15.0331 67.2943 13.3878 69.4013 12.2159C71.5083 11.0322 74.0414 10.4403 77.0007 10.4403C79.96 10.4403 82.4931 11.0322 84.6001 12.2159C86.7072 13.3878 88.3229 15.0331 89.4474 17.152C90.572 19.259 91.1342 21.7093 91.1342 24.5028C91.1342 27.2964 90.572 29.7526 89.4474 31.8715C88.3229 33.9785 86.7072 35.6238 84.6001 36.8075C82.4931 37.9794 79.96 38.5653 77.0007 38.5653ZM77.0717 31.321C77.9003 31.321 78.6165 31.0429 79.2202 30.4865C79.8239 29.9302 80.2914 29.1371 80.6229 28.1072C80.9543 27.0774 81.12 25.8523 81.12 24.4318C81.12 22.9995 80.9543 21.7744 80.6229 20.7564C80.2914 19.7266 79.8239 18.9335 79.2202 18.3771C78.6165 17.8208 77.9003 17.5426 77.0717 17.5426C76.1958 17.5426 75.4441 17.8208 74.8168 18.3771C74.1894 18.9335 73.71 19.7266 73.3786 20.7564C73.0471 21.7744 72.8814 22.9995 72.8814 24.4318C72.8814 25.8523 73.0471 27.0774 73.3786 28.1072C73.71 29.1371 74.1894 29.9302 74.8168 30.4865C75.4441 31.0429 76.1958 31.321 77.0717 31.321Z" fill="#FAFAFA"/>
<path d="M90.6115 38.0682V10.7955H100.129V15.9801H100.413C100.91 14.0625 101.697 12.6598 102.774 11.772C103.863 10.8842 105.136 10.4403 106.592 10.4403C107.018 10.4403 107.438 10.4759 107.852 10.5469C108.278 10.6061 108.687 10.6948 109.077 10.8132V19.1761C108.592 19.0104 107.994 18.8861 107.284 18.8033C106.574 18.7204 105.964 18.679 105.455 18.679C104.496 18.679 103.632 18.898 102.863 19.3359C102.105 19.7621 101.508 20.3658 101.07 21.147C100.632 21.9164 100.413 22.822 100.413 23.8636V38.0682H90.6115Z" fill="#FAFAFA"/>
<path d="M132.72 19.6733H123.7C123.653 19.117 123.458 18.6376 123.114 18.2351C122.771 17.8326 122.327 17.5249 121.783 17.3118C121.25 17.0869 120.658 16.9744 120.007 16.9744C119.167 16.9744 118.445 17.1283 117.841 17.4361C117.237 17.7438 116.941 18.1818 116.953 18.75C116.941 19.1525 117.113 19.5253 117.468 19.8686C117.835 20.2119 118.539 20.4782 119.581 20.6676L125.121 21.6619C127.914 22.1709 129.992 23.0291 131.353 24.2365C132.726 25.4321 133.419 27.036 133.43 29.0483C133.419 30.9896 132.839 32.6764 131.69 34.1087C130.554 35.5291 128.997 36.63 127.021 37.4112C125.056 38.1806 122.812 38.5653 120.291 38.5653C116.125 38.5653 112.863 37.7131 110.508 36.0085C108.164 34.304 106.856 32.0549 106.584 29.2614H116.314C116.444 30.1255 116.87 30.7943 117.592 31.2678C118.326 31.7294 119.25 31.9602 120.362 31.9602C121.262 31.9602 122.002 31.8063 122.582 31.4986C123.174 31.1908 123.475 30.7528 123.487 30.1847C123.475 29.6638 123.215 29.2495 122.706 28.9418C122.209 28.634 121.428 28.3854 120.362 28.196L115.533 27.3438C112.751 26.8584 110.668 25.9351 109.283 24.5739C107.898 23.2126 107.211 21.4607 107.223 19.3182C107.211 17.4242 107.708 15.8203 108.714 14.5064C109.732 13.1806 111.183 12.1745 113.065 11.4879C114.959 10.7895 117.202 10.4403 119.794 10.4403C123.736 10.4403 126.843 11.2571 129.116 12.8906C131.4 14.5241 132.602 16.785 132.72 19.6733Z" fill="#FAFAFA"/>
<path d="M138.012 38.6364C136.639 38.6364 135.462 38.157 134.479 37.1982C133.508 36.2275 133.029 35.0497 133.041 33.6648C133.029 32.3153 133.508 31.1612 134.479 30.2024C135.462 29.2436 136.639 28.7642 138.012 28.7642C139.315 28.7642 140.463 29.2436 141.457 30.2024C142.463 31.1612 142.972 32.3153 142.984 33.6648C142.972 34.5881 142.73 35.4285 142.256 36.1861C141.794 36.9318 141.191 37.5296 140.445 37.9794C139.699 38.4174 138.888 38.6364 138.012 38.6364Z" fill="#FAFAFA"/>
<path d="M148.64 38.0682L141.822 10.7955H151.623L154.748 27.4148H154.961L158.441 10.7955H167.958L171.581 27.2727H171.794L174.777 10.7955H184.578L177.76 38.0682H167.177L163.342 23.4375H163.058L159.223 38.0682H148.64Z" fill="#FAFAFA"/>
<path d="M199.325 10.7955V17.8977H181.356V10.7955H199.325ZM184.836 4.26137H194.637V29.2969C194.637 29.6757 194.703 29.9953 194.833 30.2557C194.963 30.5043 195.164 30.6937 195.436 30.8239C195.709 30.9422 196.058 31.0014 196.484 31.0014C196.78 31.0014 197.123 30.9659 197.514 30.8949C197.916 30.8239 198.212 30.7647 198.402 30.7173L199.822 37.6065C199.384 37.7367 198.757 37.8965 197.94 38.0859C197.135 38.2753 196.176 38.3996 195.064 38.4588C192.815 38.5772 190.926 38.3464 189.4 37.7663C187.873 37.1745 186.724 36.2453 185.955 34.9787C185.185 33.7121 184.813 32.1259 184.836 30.2202V4.26137Z" fill="#FAFAFA"/>
<path d="M215.16 10.7955V17.8977H196.907V10.7955H215.16ZM200.387 38.0682V10.0142C200.387 7.76515 200.789 5.90081 201.594 4.42117C202.399 2.94153 203.536 1.83476 205.003 1.10085C206.471 0.366951 208.199 0 210.188 0C211.431 0 212.638 0.0946979 213.81 0.284094C214.994 0.473487 215.87 0.639206 216.438 0.78125L215.018 7.8125C214.662 7.70597 214.248 7.62311 213.775 7.56392C213.301 7.4929 212.887 7.45739 212.532 7.45739C211.608 7.45739 210.987 7.6527 210.667 8.04333C210.348 8.43395 210.188 8.94886 210.188 9.58807V38.0682H200.387Z" fill="#FAFAFA"/>
</mask>
<g mask="url(#mask0_56_87)">
<g filter="url(#filter0_f_56_87)">
<rect x="13.3892" y="-11.9692" width="52.3567" height="52.3567" rx="26.1783" transform="rotate(-34.7808 13.3892 -11.9692)" fill="#F5971D"/>
</g>
<g filter="url(#filter1_f_56_87)">
<rect x="-15.873" y="18.2109" width="52.3567" height="52.3567" rx="26.1783" transform="rotate(-34.7808 -15.873 18.2109)" fill="#E61E25"/>
</g>
<g filter="url(#filter2_f_56_87)">
<rect x="21.395" y="27.0928" width="52.3567" height="52.3567" rx="26.1783" transform="rotate(-34.7808 21.395 27.0928)" fill="#E6194F"/>
</g>
<g filter="url(#filter3_f_56_87)">
<rect x="164.266" y="14.437" width="52.3567" height="52.3567" rx="26.1783" transform="rotate(-34.7808 164.266 14.437)" fill="#922680"/>
</g>
<g filter="url(#filter4_f_56_87)">
<rect x="52.3311" y="-26.2661" width="52.3567" height="52.3567" rx="26.1783" transform="rotate(-34.7808 52.3311 -26.2661)" fill="#2A337F"/>
</g>
<g filter="url(#filter5_f_56_87)">
<rect x="86.1797" y="22.4702" width="52.3567" height="52.3567" rx="26.1783" transform="rotate(-34.7808 86.1797 22.4702)" fill="#0F6BB5"/>
</g>
<g filter="url(#filter6_f_56_87)">
<rect x="92.748" y="-13.9639" width="52.3567" height="52.3567" rx="26.1783" transform="rotate(-34.7808 92.748 -13.9639)" fill="#079447"/>
</g>
<g filter="url(#filter7_f_56_87)">
<rect x="128.162" y="29.1113" width="52.3567" height="52.3567" rx="26.1783" transform="rotate(-34.7808 128.162 29.1113)" fill="#93C23D"/>
</g>
<g filter="url(#filter8_f_56_87)">
<rect x="45.7632" y="10.1685" width="52.3567" height="52.3567" rx="26.1783" transform="rotate(-34.7808 45.7632 10.1685)" fill="#F8ED06"/>
</g>
<g filter="url(#filter9_f_56_87)">
<rect x="127.602" y="8.59277" width="52.3567" height="52.3567" rx="26.1783" transform="rotate(-34.7808 127.602 8.59277)" fill="#FBBC12"/>
</g>
</g>
<mask id="mask1_56_87" style="mask-type:alpha" maskUnits="userSpaceOnUse" x="7" y="0" width="217" height="39">
<path d="M21.1335 38.5653C18.1742 38.5653 15.6411 37.9794 13.5341 36.8075C11.4271 35.6238 9.81132 33.9785 8.68679 31.8715C7.56226 29.7526 7 27.2964 7 24.5028C7 21.7093 7.56226 19.259 8.68679 17.152C9.81132 15.0331 11.4271 13.3878 13.5341 12.2159C15.6411 11.0322 18.1742 10.4403 21.1335 10.4403C23.8087 10.4403 26.1229 10.9257 28.076 11.8963C30.041 12.8551 31.562 14.2164 32.6392 15.9801C33.7164 17.732 34.2609 19.7917 34.2727 22.1591H25.1818C25.0516 20.7268 24.6373 19.6378 23.9389 18.892C23.2524 18.1345 22.3646 17.7557 21.2756 17.7557C20.4233 17.7557 19.6776 18.0043 19.0384 18.5014C18.3991 18.9867 17.902 19.7266 17.5469 20.7209C17.1918 21.7034 17.0142 22.9403 17.0142 24.4318C17.0142 25.9233 17.1918 27.1662 17.5469 28.1605C17.902 29.143 18.3991 29.8828 19.0384 30.38C19.6776 30.8653 20.4233 31.108 21.2756 31.108C21.9976 31.108 22.6368 30.9422 23.1932 30.6108C23.7495 30.2675 24.1993 29.7704 24.5426 29.1193C24.8977 28.4564 25.1108 27.6515 25.1818 26.7045H34.2727C34.2372 29.1075 33.6868 31.2027 32.6215 32.9901C31.5561 34.7656 30.0469 36.1387 28.0938 37.1094C26.1525 38.08 23.8324 38.5653 21.1335 38.5653Z" fill="#FAFAFA"/>
<path d="M46.9558 38.5653C43.9965 38.5653 41.4634 37.9794 39.3564 36.8075C37.2493 35.6238 35.6336 33.9785 34.5091 31.8715C33.3845 29.7526 32.8223 27.2964 32.8223 24.5028C32.8223 21.7093 33.3845 19.259 34.5091 17.152C35.6336 15.0331 37.2493 13.3878 39.3564 12.2159C41.4634 11.0322 43.9965 10.4403 46.9558 10.4403C49.9151 10.4403 52.4482 11.0322 54.5552 12.2159C56.6622 13.3878 58.278 15.0331 59.4025 17.152C60.5271 19.259 61.0893 21.7093 61.0893 24.5028C61.0893 27.2964 60.5271 29.7526 59.4025 31.8715C58.278 33.9785 56.6622 35.6238 54.5552 36.8075C52.4482 37.9794 49.9151 38.5653 46.9558 38.5653ZM47.0268 31.321C47.8554 31.321 48.5716 31.0429 49.1753 30.4865C49.7789 29.9302 50.2465 29.1371 50.5779 28.1072C50.9094 27.0774 51.0751 25.8523 51.0751 24.4318C51.0751 22.9995 50.9094 21.7744 50.5779 20.7564C50.2465 19.7266 49.7789 18.9335 49.1753 18.3771C48.5716 17.8208 47.8554 17.5426 47.0268 17.5426C46.1509 17.5426 45.3992 17.8208 44.7718 18.3771C44.1445 18.9335 43.6651 19.7266 43.3336 20.7564C43.0022 21.7744 42.8365 22.9995 42.8365 24.4318C42.8365 25.8523 43.0022 27.0774 43.3336 28.1072C43.6651 29.1371 44.1445 29.9302 44.7718 30.4865C45.3992 31.0429 46.1509 31.321 47.0268 31.321Z" fill="#FAFAFA"/>
<path d="M70.3677 1.70455V38.0682H60.5666V1.70455H70.3677Z" fill="#FAFAFA"/>
<path d="M84.0007 38.5653C81.0414 38.5653 78.5083 37.9794 76.4013 36.8075C74.2943 35.6238 72.6785 33.9785 71.554 31.8715C70.4295 29.7526 69.8672 27.2964 69.8672 24.5028C69.8672 21.7093 70.4295 19.259 71.554 17.152C72.6785 15.0331 74.2943 13.3878 76.4013 12.2159C78.5083 11.0322 81.0414 10.4403 84.0007 10.4403C86.96 10.4403 89.4931 11.0322 91.6001 12.2159C93.7072 13.3878 95.3229 15.0331 96.4474 17.152C97.572 19.259 98.1342 21.7093 98.1342 24.5028C98.1342 27.2964 97.572 29.7526 96.4474 31.8715C95.3229 33.9785 93.7072 35.6238 91.6001 36.8075C89.4931 37.9794 86.96 38.5653 84.0007 38.5653ZM84.0717 31.321C84.9003 31.321 85.6165 31.0429 86.2202 30.4865C86.8239 29.9302 87.2914 29.1371 87.6229 28.1072C87.9543 27.0774 88.12 25.8523 88.12 24.4318C88.12 22.9995 87.9543 21.7744 87.6229 20.7564C87.2914 19.7266 86.8239 18.9335 86.2202 18.3771C85.6165 17.8208 84.9003 17.5426 84.0717 17.5426C83.1958 17.5426 82.4441 17.8208 81.8168 18.3771C81.1894 18.9335 80.71 19.7266 80.3786 20.7564C80.0471 21.7744 79.8814 22.9995 79.8814 24.4318C79.8814 25.8523 80.0471 27.0774 80.3786 28.1072C80.71 29.1371 81.1894 29.9302 81.8168 30.4865C82.4441 31.0429 83.1958 31.321 84.0717 31.321Z" fill="#FAFAFA"/>
<path d="M97.6115 38.0682V10.7955H107.129V15.9801H107.413C107.91 14.0625 108.697 12.6598 109.774 11.772C110.863 10.8842 112.136 10.4403 113.592 10.4403C114.018 10.4403 114.438 10.4759 114.852 10.5469C115.278 10.6061 115.687 10.6948 116.077 10.8132V19.1761C115.592 19.0104 114.994 18.8861 114.284 18.8033C113.574 18.7204 112.964 18.679 112.455 18.679C111.496 18.679 110.632 18.898 109.863 19.3359C109.105 19.7621 108.508 20.3658 108.07 21.147C107.632 21.9164 107.413 22.822 107.413 23.8636V38.0682H97.6115Z" fill="#FAFAFA"/>
<path d="M139.72 19.6733H130.7C130.653 19.117 130.458 18.6376 130.114 18.2351C129.771 17.8326 129.327 17.5249 128.783 17.3118C128.25 17.0869 127.658 16.9744 127.007 16.9744C126.167 16.9744 125.445 17.1283 124.841 17.4361C124.237 17.7438 123.941 18.1818 123.953 18.75C123.941 19.1525 124.113 19.5253 124.468 19.8686C124.835 20.2119 125.539 20.4782 126.581 20.6676L132.121 21.6619C134.914 22.1709 136.992 23.0291 138.353 24.2365C139.726 25.4321 140.419 27.036 140.43 29.0483C140.419 30.9896 139.839 32.6764 138.69 34.1087C137.554 35.5291 135.997 36.63 134.021 37.4112C132.056 38.1806 129.812 38.5653 127.291 38.5653C123.125 38.5653 119.863 37.7131 117.508 36.0085C115.164 34.304 113.856 32.0549 113.584 29.2614H123.314C123.444 30.1255 123.87 30.7943 124.592 31.2678C125.326 31.7294 126.25 31.9602 127.362 31.9602C128.262 31.9602 129.002 31.8063 129.582 31.4986C130.174 31.1908 130.475 30.7528 130.487 30.1847C130.475 29.6638 130.215 29.2495 129.706 28.9418C129.209 28.634 128.428 28.3854 127.362 28.196L122.533 27.3438C119.751 26.8584 117.668 25.9351 116.283 24.5739C114.898 23.2126 114.211 21.4607 114.223 19.3182C114.211 17.4242 114.708 15.8203 115.714 14.5064C116.732 13.1806 118.183 12.1745 120.065 11.4879C121.959 10.7895 124.202 10.4403 126.794 10.4403C130.736 10.4403 133.843 11.2571 136.116 12.8906C138.4 14.5241 139.602 16.785 139.72 19.6733Z" fill="#FAFAFA"/>
<path d="M145.012 38.6364C143.639 38.6364 142.462 38.157 141.479 37.1982C140.508 36.2275 140.029 35.0497 140.041 33.6648C140.029 32.3153 140.508 31.1612 141.479 30.2024C142.462 29.2436 143.639 28.7642 145.012 28.7642C146.315 28.7642 147.463 29.2436 148.457 30.2024C149.463 31.1612 149.972 32.3153 149.984 33.6648C149.972 34.5881 149.73 35.4285 149.256 36.1861C148.794 36.9318 148.191 37.5296 147.445 37.9794C146.699 38.4174 145.888 38.6364 145.012 38.6364Z" fill="#FAFAFA"/>
<path d="M155.64 38.0682L148.822 10.7955H158.623L161.748 27.4148H161.961L165.441 10.7955H174.958L178.581 27.2727H178.794L181.777 10.7955H191.578L184.76 38.0682H174.177L170.342 23.4375H170.058L166.223 38.0682H155.64Z" fill="#FAFAFA"/>
<path d="M206.325 10.7955V17.8977H188.356V10.7955H206.325ZM191.836 4.26137H201.637V29.2969C201.637 29.6757 201.703 29.9953 201.833 30.2557C201.963 30.5043 202.164 30.6937 202.436 30.8239C202.709 30.9422 203.058 31.0014 203.484 31.0014C203.78 31.0014 204.123 30.9659 204.514 30.8949C204.916 30.8239 205.212 30.7647 205.402 30.7173L206.822 37.6065C206.384 37.7367 205.757 37.8965 204.94 38.0859C204.135 38.2753 203.176 38.3996 202.064 38.4588C199.815 38.5772 197.926 38.3464 196.4 37.7663C194.873 37.1745 193.724 36.2453 192.955 34.9787C192.185 33.7121 191.813 32.1259 191.836 30.2202V4.26137Z" fill="#FAFAFA"/>
<path d="M222.16 10.7955V17.8977H203.907V10.7955H222.16ZM207.387 38.0682V10.0142C207.387 7.76515 207.789 5.90081 208.594 4.42117C209.399 2.94153 210.536 1.83476 212.003 1.10085C213.471 0.366951 215.199 0 217.188 0C218.431 0 219.638 0.0946979 220.81 0.284094C221.994 0.473487 222.87 0.639206 223.438 0.78125L222.018 7.8125C221.662 7.70597 221.248 7.62311 220.775 7.56392C220.301 7.4929 219.887 7.45739 219.532 7.45739C218.608 7.45739 217.987 7.6527 217.667 8.04333C217.348 8.43395 217.188 8.94886 217.188 9.58807V38.0682H207.387Z" fill="#FAFAFA"/>
</mask>
<g mask="url(#mask1_56_87)">
<rect x="-45" y="-14" width="346" height="132" fill="white"/>
</g>
<defs>
<filter id="filter0_f_56_87" x="0.0784969" y="-55.1461" width="99.4905" height="99.4905" filterUnits="userSpaceOnUse" color-interpolation-filters="sRGB">
<feFlood flood-opacity="0" result="BackgroundImageFix"/>
<feBlend mode="normal" in="SourceGraphic" in2="BackgroundImageFix" result="shape"/>
<feGaussianBlur stdDeviation="11.7823" result="effect1_foregroundBlur_56_87"/>
</filter>
<filter id="filter1_f_56_87" x="-29.1837" y="-24.9659" width="99.4905" height="99.4905" filterUnits="userSpaceOnUse" color-interpolation-filters="sRGB">
<feFlood flood-opacity="0" result="BackgroundImageFix"/>
<feBlend mode="normal" in="SourceGraphic" in2="BackgroundImageFix" result="shape"/>
<feGaussianBlur stdDeviation="11.7823" result="effect1_foregroundBlur_56_87"/>
</filter>
<filter id="filter2_f_56_87" x="8.08436" y="-16.0841" width="99.4905" height="99.4905" filterUnits="userSpaceOnUse" color-interpolation-filters="sRGB">
<feFlood flood-opacity="0" result="BackgroundImageFix"/>
<feBlend mode="normal" in="SourceGraphic" in2="BackgroundImageFix" result="shape"/>
<feGaussianBlur stdDeviation="11.7823" result="effect1_foregroundBlur_56_87"/>
</filter>
<filter id="filter3_f_56_87" x="150.955" y="-28.7399" width="99.4905" height="99.4905" filterUnits="userSpaceOnUse" color-interpolation-filters="sRGB">
<feFlood flood-opacity="0" result="BackgroundImageFix"/>
<feBlend mode="normal" in="SourceGraphic" in2="BackgroundImageFix" result="shape"/>
<feGaussianBlur stdDeviation="11.7823" result="effect1_foregroundBlur_56_87"/>
</filter>
<filter id="filter4_f_56_87" x="39.0204" y="-69.443" width="99.4905" height="99.4905" filterUnits="userSpaceOnUse" color-interpolation-filters="sRGB">
<feFlood flood-opacity="0" result="BackgroundImageFix"/>
<feBlend mode="normal" in="SourceGraphic" in2="BackgroundImageFix" result="shape"/>
<feGaussianBlur stdDeviation="11.7823" result="effect1_foregroundBlur_56_87"/>
</filter>
<filter id="filter5_f_56_87" x="72.869" y="-20.7067" width="99.4905" height="99.4905" filterUnits="userSpaceOnUse" color-interpolation-filters="sRGB">
<feFlood flood-opacity="0" result="BackgroundImageFix"/>
<feBlend mode="normal" in="SourceGraphic" in2="BackgroundImageFix" result="shape"/>
<feGaussianBlur stdDeviation="11.7823" result="effect1_foregroundBlur_56_87"/>
</filter>
<filter id="filter6_f_56_87" x="79.4374" y="-57.1407" width="99.4905" height="99.4905" filterUnits="userSpaceOnUse" color-interpolation-filters="sRGB">
<feFlood flood-opacity="0" result="BackgroundImageFix"/>
<feBlend mode="normal" in="SourceGraphic" in2="BackgroundImageFix" result="shape"/>
<feGaussianBlur stdDeviation="11.7823" result="effect1_foregroundBlur_56_87"/>
</filter>
<filter id="filter7_f_56_87" x="114.851" y="-14.0655" width="99.4905" height="99.4905" filterUnits="userSpaceOnUse" color-interpolation-filters="sRGB">
<feFlood flood-opacity="0" result="BackgroundImageFix"/>
<feBlend mode="normal" in="SourceGraphic" in2="BackgroundImageFix" result="shape"/>
<feGaussianBlur stdDeviation="11.7823" result="effect1_foregroundBlur_56_87"/>
</filter>
<filter id="filter8_f_56_87" x="32.4525" y="-33.0084" width="99.4905" height="99.4905" filterUnits="userSpaceOnUse" color-interpolation-filters="sRGB">
<feFlood flood-opacity="0" result="BackgroundImageFix"/>
<feBlend mode="normal" in="SourceGraphic" in2="BackgroundImageFix" result="shape"/>
<feGaussianBlur stdDeviation="11.7823" result="effect1_foregroundBlur_56_87"/>
</filter>
<filter id="filter9_f_56_87" x="114.291" y="-34.5841" width="99.4905" height="99.4905" filterUnits="userSpaceOnUse" color-interpolation-filters="sRGB">
<feFlood flood-opacity="0" result="BackgroundImageFix"/>
<feBlend mode="normal" in="SourceGraphic" in2="BackgroundImageFix" result="shape"/>
<feGaussianBlur stdDeviation="11.7823" result="effect1_foregroundBlur_56_87"/>
</filter>
</defs>
</svg>
