<svg width="20" height="17" viewBox="0 0 20 17" fill="none" xmlns="http://www.w3.org/2000/svg">
<path d="M0.5 14.4448C2.55581 14.5605 4.35354 14.08 6.10677 12.8073C4.33574 12.5047 3.1076 11.6949 2.44012 10.0217C2.9563 9.95053 3.41019 10.084 3.94416 9.87043C2.19984 9.10506 1.06958 7.95701 1.02508 5.97239C1.57686 6.01689 1.99514 6.38177 2.65372 6.32838C1.05178 4.76204 0.562297 3.05331 1.56796 0.9797C3.24109 2.90202 5.19901 4.21027 7.59301 4.82434C7.72651 4.85994 7.85109 4.89554 7.98459 4.92224C8.59866 5.06463 9.32843 5.36722 9.70222 5.32272C10.343 5.24262 9.70222 4.50395 9.86242 3.54279C10.3697 0.552518 13.6626 -0.809125 16.1011 0.944102C16.813 1.46028 17.3737 1.45138 18.0768 1.13989C18.4417 0.9797 18.8154 0.819507 19.2515 0.632615C19.1536 1.48698 18.4951 1.95866 17.97 2.59053C18.5663 2.72403 19.0468 2.55493 19.5986 2.37694C19.4117 2.99102 18.9489 3.3381 18.5306 3.67629C18.0946 4.02337 17.9255 4.38826 17.9077 4.95783C17.6407 13.5816 7.8422 20.2474 1.14078 14.9432C0.491107 14.427 1.12297 14.9432 0.5 14.4448Z" fill="#292929"/>
</svg>
